<mxfile host="app.diagrams.net" modified="2022-06-06T08:33:21.909Z" agent="5.0 (Macintosh; Intel Mac OS X 10_14_6) AppleWebKit/537.36 (KHTML, like Gecko) Chrome/102.0.5005.61 Safari/537.36" etag="IzrjtITA80CzfQs54yJC" version="18.0.5" type="github">
  <diagram id="HEZk_IuMMNvENVfzKqfl" name="第 1 页">
    <mxGraphModel dx="1666" dy="741" grid="1" gridSize="10" guides="1" tooltips="1" connect="1" arrows="1" fold="1" page="1" pageScale="1" pageWidth="827" pageHeight="1169" math="0" shadow="0">
      <root>
        <mxCell id="0" />
        <mxCell id="1" parent="0" />
        <mxCell id="kA_1FhZ09h3NkgSqPD2O-17" style="edgeStyle=orthogonalEdgeStyle;curved=1;rounded=0;orthogonalLoop=1;jettySize=auto;html=1;exitX=1;exitY=0.5;exitDx=0;exitDy=0;entryX=0;entryY=0.5;entryDx=0;entryDy=0;" edge="1" parent="1" source="kA_1FhZ09h3NkgSqPD2O-9" target="kA_1FhZ09h3NkgSqPD2O-16">
          <mxGeometry relative="1" as="geometry" />
        </mxCell>
        <mxCell id="kA_1FhZ09h3NkgSqPD2O-23" value="检测宕机" style="edgeLabel;html=1;align=center;verticalAlign=middle;resizable=0;points=[];" vertex="1" connectable="0" parent="kA_1FhZ09h3NkgSqPD2O-17">
          <mxGeometry x="-0.5" y="-1" relative="1" as="geometry">
            <mxPoint y="-16" as="offset" />
          </mxGeometry>
        </mxCell>
        <mxCell id="kA_1FhZ09h3NkgSqPD2O-20" style="edgeStyle=orthogonalEdgeStyle;curved=1;rounded=0;orthogonalLoop=1;jettySize=auto;html=1;entryX=0.5;entryY=0;entryDx=0;entryDy=0;entryPerimeter=0;" edge="1" parent="1" source="kA_1FhZ09h3NkgSqPD2O-9" target="kA_1FhZ09h3NkgSqPD2O-18">
          <mxGeometry relative="1" as="geometry" />
        </mxCell>
        <mxCell id="kA_1FhZ09h3NkgSqPD2O-24" value="异常信息写入管理DB" style="edgeLabel;html=1;align=center;verticalAlign=middle;resizable=0;points=[];" vertex="1" connectable="0" parent="kA_1FhZ09h3NkgSqPD2O-20">
          <mxGeometry x="-0.2814" y="3" relative="1" as="geometry">
            <mxPoint as="offset" />
          </mxGeometry>
        </mxCell>
        <mxCell id="kA_1FhZ09h3NkgSqPD2O-9" value="" style="rounded=0;whiteSpace=wrap;html=1;" vertex="1" parent="1">
          <mxGeometry x="95" y="180" width="155" height="150" as="geometry" />
        </mxCell>
        <mxCell id="kA_1FhZ09h3NkgSqPD2O-1" value="orc" style="ellipse;whiteSpace=wrap;html=1;aspect=fixed;" vertex="1" parent="1">
          <mxGeometry x="120" y="260" width="50" height="50" as="geometry" />
        </mxCell>
        <mxCell id="kA_1FhZ09h3NkgSqPD2O-2" value="orc" style="ellipse;whiteSpace=wrap;html=1;aspect=fixed;" vertex="1" parent="1">
          <mxGeometry x="180" y="240" width="50" height="50" as="geometry" />
        </mxCell>
        <mxCell id="kA_1FhZ09h3NkgSqPD2O-3" value="orc" style="ellipse;whiteSpace=wrap;html=1;aspect=fixed;" vertex="1" parent="1">
          <mxGeometry x="130" y="190" width="50" height="50" as="geometry" />
        </mxCell>
        <mxCell id="kA_1FhZ09h3NkgSqPD2O-18" value="管理库" style="shape=cylinder3;whiteSpace=wrap;html=1;boundedLbl=1;backgroundOutline=1;size=15;" vertex="1" parent="1">
          <mxGeometry x="170" y="460" width="40" height="60" as="geometry" />
        </mxCell>
        <mxCell id="kA_1FhZ09h3NkgSqPD2O-22" style="edgeStyle=orthogonalEdgeStyle;curved=1;rounded=0;orthogonalLoop=1;jettySize=auto;html=1;exitX=0;exitY=0.5;exitDx=0;exitDy=0;entryX=1;entryY=0;entryDx=0;entryDy=37.5;entryPerimeter=0;" edge="1" parent="1" source="kA_1FhZ09h3NkgSqPD2O-21" target="kA_1FhZ09h3NkgSqPD2O-18">
          <mxGeometry relative="1" as="geometry" />
        </mxCell>
        <mxCell id="kA_1FhZ09h3NkgSqPD2O-25" value="读取异常信息" style="edgeLabel;html=1;align=center;verticalAlign=middle;resizable=0;points=[];" vertex="1" connectable="0" parent="kA_1FhZ09h3NkgSqPD2O-22">
          <mxGeometry x="-0.2081" y="9" relative="1" as="geometry">
            <mxPoint as="offset" />
          </mxGeometry>
        </mxCell>
        <mxCell id="kA_1FhZ09h3NkgSqPD2O-28" style="edgeStyle=orthogonalEdgeStyle;curved=1;rounded=0;orthogonalLoop=1;jettySize=auto;html=1;exitX=1;exitY=0.5;exitDx=0;exitDy=0;entryX=0.5;entryY=1;entryDx=0;entryDy=0;" edge="1" parent="1" source="kA_1FhZ09h3NkgSqPD2O-21" target="kA_1FhZ09h3NkgSqPD2O-27">
          <mxGeometry relative="1" as="geometry" />
        </mxCell>
        <mxCell id="kA_1FhZ09h3NkgSqPD2O-29" value="发送告警" style="edgeLabel;html=1;align=center;verticalAlign=middle;resizable=0;points=[];" vertex="1" connectable="0" parent="kA_1FhZ09h3NkgSqPD2O-28">
          <mxGeometry x="-0.2105" y="18" relative="1" as="geometry">
            <mxPoint as="offset" />
          </mxGeometry>
        </mxCell>
        <mxCell id="kA_1FhZ09h3NkgSqPD2O-21" value="告警服务" style="ellipse;whiteSpace=wrap;html=1;" vertex="1" parent="1">
          <mxGeometry x="380" y="440" width="90" height="60" as="geometry" />
        </mxCell>
        <mxCell id="kA_1FhZ09h3NkgSqPD2O-26" value="" style="group" vertex="1" connectable="0" parent="1">
          <mxGeometry x="360" y="110" width="165" height="170" as="geometry" />
        </mxCell>
        <mxCell id="kA_1FhZ09h3NkgSqPD2O-16" value="" style="rounded=0;whiteSpace=wrap;html=1;" vertex="1" parent="kA_1FhZ09h3NkgSqPD2O-26">
          <mxGeometry width="165" height="170" as="geometry" />
        </mxCell>
        <mxCell id="kA_1FhZ09h3NkgSqPD2O-4" value="M" style="shape=cylinder3;whiteSpace=wrap;html=1;boundedLbl=1;backgroundOutline=1;size=15;" vertex="1" parent="kA_1FhZ09h3NkgSqPD2O-26">
          <mxGeometry x="60" y="10" width="40" height="60" as="geometry" />
        </mxCell>
        <mxCell id="kA_1FhZ09h3NkgSqPD2O-5" value="S" style="shape=cylinder3;whiteSpace=wrap;html=1;boundedLbl=1;backgroundOutline=1;size=15;" vertex="1" parent="kA_1FhZ09h3NkgSqPD2O-26">
          <mxGeometry x="20" y="90" width="40" height="60" as="geometry" />
        </mxCell>
        <mxCell id="kA_1FhZ09h3NkgSqPD2O-7" style="edgeStyle=orthogonalEdgeStyle;rounded=0;orthogonalLoop=1;jettySize=auto;html=1;exitX=0.145;exitY=1;exitDx=0;exitDy=-4.35;exitPerimeter=0;entryX=0.5;entryY=0;entryDx=0;entryDy=0;entryPerimeter=0;curved=1;" edge="1" parent="kA_1FhZ09h3NkgSqPD2O-26" source="kA_1FhZ09h3NkgSqPD2O-4" target="kA_1FhZ09h3NkgSqPD2O-5">
          <mxGeometry relative="1" as="geometry" />
        </mxCell>
        <mxCell id="kA_1FhZ09h3NkgSqPD2O-6" value="S" style="shape=cylinder3;whiteSpace=wrap;html=1;boundedLbl=1;backgroundOutline=1;size=15;" vertex="1" parent="kA_1FhZ09h3NkgSqPD2O-26">
          <mxGeometry x="90" y="90" width="40" height="60" as="geometry" />
        </mxCell>
        <mxCell id="kA_1FhZ09h3NkgSqPD2O-8" style="edgeStyle=orthogonalEdgeStyle;curved=1;rounded=0;orthogonalLoop=1;jettySize=auto;html=1;exitX=0.855;exitY=1;exitDx=0;exitDy=-4.35;exitPerimeter=0;entryX=0.5;entryY=0;entryDx=0;entryDy=0;entryPerimeter=0;" edge="1" parent="kA_1FhZ09h3NkgSqPD2O-26" source="kA_1FhZ09h3NkgSqPD2O-4" target="kA_1FhZ09h3NkgSqPD2O-6">
          <mxGeometry relative="1" as="geometry" />
        </mxCell>
        <mxCell id="kA_1FhZ09h3NkgSqPD2O-30" style="edgeStyle=orthogonalEdgeStyle;curved=1;rounded=0;orthogonalLoop=1;jettySize=auto;html=1;entryX=0.5;entryY=0;entryDx=0;entryDy=0;entryPerimeter=0;" edge="1" parent="1" source="kA_1FhZ09h3NkgSqPD2O-27" target="kA_1FhZ09h3NkgSqPD2O-18">
          <mxGeometry relative="1" as="geometry" />
        </mxCell>
        <mxCell id="kA_1FhZ09h3NkgSqPD2O-31" value="ACK" style="edgeLabel;html=1;align=center;verticalAlign=middle;resizable=0;points=[];" vertex="1" connectable="0" parent="kA_1FhZ09h3NkgSqPD2O-30">
          <mxGeometry x="-0.3532" y="8" relative="1" as="geometry">
            <mxPoint as="offset" />
          </mxGeometry>
        </mxCell>
        <mxCell id="kA_1FhZ09h3NkgSqPD2O-27" value="" style="shape=actor;whiteSpace=wrap;html=1;" vertex="1" parent="1">
          <mxGeometry x="560" y="330" width="40" height="60" as="geometry" />
        </mxCell>
      </root>
    </mxGraphModel>
  </diagram>
</mxfile>
